<?xml version="1.0" encoding="utf-8"?>
<!-- Svg Vector Icons : http://www.onlinewebfonts.com/icon -->
<!DOCTYPE svg PUBLIC "-//W3C//DTD SVG 1.1//EN" "http://www.w3.org/Graphics/SVG/1.1/DTD/svg11.dtd">
<svg version="1.1" xmlns="http://www.w3.org/2000/svg" xmlns:xlink="http://www.w3.org/1999/xlink" x="0px" y="0px" viewBox="0 0 1000 1000" enable-background="new 0 0 1000 1000" xml:space="preserve">
<metadata> Svg Vector Icons : http://www.onlinewebfonts.com/icon </metadata>
<g><g transform="translate(0.000000,512.000000) scale(0.100000,-0.100000)">
<path fill="#FFFFFF" d="M4530.1,5007.9C3377.4,4889,2337.8,4396.1,1528.4,3586.7C751.6,2806.1,287.5,1860.5,124.4,723.1c-32.6-226.3-32.6-982,0-1208.3c163-1137.4,629.1-2086.8,1405.9-2865.5c776.8-776.8,1730-1244.8,2865.5-1405.9c226.3-32.6,982-32.6,1208.3,0c939.8,134.3,1779.9,491,2474.2,1053c987.8,797.9,1611.1,1916.1,1797.2,3218.4c32.6,226.3,32.6,982,0,1208.3c-163,1137.4-629.1,2086.8-1405.9,2865.5c-759.5,759.5-1687.8,1223.7-2779.2,1392.5C5448.8,5017.5,4775.6,5034.8,4530.1,5007.9z M5335.6,4607.1c895.7-74.8,1666.7-366.3,2387.9-907.2c218.7-163,588.8-519.8,761.4-732.7c402.8-496.8,715.4-1112.4,866.9-1703.2c320.3-1250.5,107.4-2564.4-590.8-3609.7c-209.1-314.6-360.6-498.7-627.2-759.5C6998.5-4209.9,5404.7-4630,3854.9-4233c-878.4,224.4-1720.4,763.4-2320.8,1478.8c-397,477.6-734.6,1131.6-886.1,1728.1C325.8,228.3,540.7,1536.4,1238.8,2583.6c209.1,314.6,360.6,498.7,627.2,759.5C2794.3,4248.4,4067.9,4710.7,5335.6,4607.1z"/><path fill="#FFFFFF" d="M4510.9,4183.2c-1381-174.5-2577.8-1028-3185.8-2272.8c-257-523.6-410.5-1154.6-410.5-1678.2c0-155.4,5.8-191.8,38.4-232.1c57.5-74.8,136.2-99.7,220.6-72.9c99.7,32.6,143.8,113.2,143.8,264.7c0,746.1,310.7,1603.4,801.7,2219.1c531.3,663.6,1315.8,1148.9,2127.1,1311.9c222.5,46,514,78.6,680.9,78.6c151.5,0,232.1,44.1,264.7,143.8c26.9,84.4,1.9,163-72.9,220.6c-40.3,32.6-74.8,38.4-260.8,36.4C4741.1,4200.5,4585.7,4192.8,4510.9,4183.2z"/><path fill="#FFFFFF" d="M4689.3,3377.7c-1273.5-122.8-2361-982-2783-2196.1C1818,930.3,1762.4,656,1737.5,351.1C1718.3,132.4,1720.2,96,1749,36.5c61.4-132.3,222.5-161.1,324.1-57.5c55.6,55.6,63.3,90.1,76.7,370.2c51.8,966.7,684.7,1896.9,1593.8,2340c356.8,174.5,803.7,287.7,1135.5,287.7c174.5,0,258.9,34.5,301.1,124.7c38.4,78.6,38.4,94,0,172.6C5124.7,3393,5038.3,3412.2,4689.3,3377.7z"/><path fill="#FFFFFF" d="M4731.5,2560.6C3559.6,2435.9,2617.8,1442.4,2552.6,262.8c-9.6-170.7-5.8-199.5,26.8-251.3c53.7-84.4,151.5-115.1,239.7-76.7c99.7,40.3,120.8,92.1,145.8,349.1c55.6,613.8,335.6,1112.4,828.6,1482.6c295.4,222.5,640.6,351,1041.5,387.4c132.3,13.4,251.3,34.5,276.2,49.9c71,44.1,107.4,147.7,78.7,230.2C5149.6,2558.7,5028.8,2593.2,4731.5,2560.6z"/><path fill="#FFFFFF" d="M4695,1730.1c-329.9-69.1-609.9-220.6-847.8-458.4c-195.6-195.6-318.4-393.2-404.7-654c-59.5-176.5-61.4-193.7-61.4-498.7c0-295.4,3.8-328,53.7-479.5c189.9-581.2,652.1-999.3,1239-1124c161.1-34.5,491-34.5,652.1,0c320.3,67.1,590.7,214.8,826.7,450.7c237.8,239.7,381.7,506.4,452.7,836.3c44.1,211,24.9,586.9-42.2,796c-164.9,515.9-552.4,909.1-1064.5,1077.9c-163,51.8-211,59.5-450.7,65.2C4900.3,1745.4,4741.1,1739.7,4695,1730.1z M5258.9,1317.7c698.2-145.8,1137.4-913,905.3-1580.4c-69.1-195.6-155.4-333.7-301.1-481.4c-485.3-485.3-1239-485.3-1726.2,0C3651.7-262.7,3651.7,498.7,4135,984C4434.2,1281.3,4844.6,1404,5258.9,1317.7z"/><path fill="#FFFFFF" d="M4909.8,299.3c-74.8-36.4-128.5-141.9-111.2-218.6c15.3-71,92.1-147.7,163-163c78.7-17.3,182.2,36.4,218.7,115.1c17.2,34.5,30.7,72.9,30.7,86.3c0,57.5-65.2,153.4-124.7,180.3C5007.7,337.6,4986.6,337.6,4909.8,299.3z"/><path fill="#FFFFFF" d="M7175,310.8c-86.3-34.5-117-105.5-132.4-291.5c-42.2-558.1-245.5-1003.1-627.2-1369.4c-370.2-354.8-778.7-533.2-1315.7-573.5c-149.6-11.5-188-21.1-234-59.5c-69-59.5-86.3-138.1-49.9-224.4c44.1-109.3,118.9-136.2,339.5-120.8c609.9,38.4,1129.7,278.1,1572.7,719.2c441.1,443.1,680.9,962.8,719.3,1572.8c15.4,218.6-11.5,295.4-117,339.5C7255.5,333.8,7232.5,333.8,7175,310.8z"/><path fill="#FFFFFF" d="M7978.6,299.3c-88.2-44.1-115.1-120.8-128.5-381.7c-57.5-1137.4-855.4-2157.7-1969.8-2522.1c-222.5-72.9-567.7-134.3-759.5-134.3c-174.5,0-258.9-34.5-301.1-124.7c-38.4-78.6-38.4-94,0-172.6c51.8-111.2,118.9-128.5,408.5-105.5c1175.7,88.2,2186.5,767.2,2706.3,1818.3c184.1,370.2,293.4,776.8,326.1,1214.1c23,289.6,5.8,356.8-105.5,408.5C8076.5,337.6,8055.4,337.6,7978.6,299.3z"/><path fill="#FFFFFF" d="M8797.6,297.3c-88.2-46-115.1-103.6-115.1-251.2c0-473.8-138.1-1047.2-364.4-1517.1c-562-1160.4-1653.3-1931.4-2938.4-2071.4c-103.6-11.5-241.7-21.1-306.9-21.1c-149.6,0-207.1-28.8-251.3-120.8c-46-90.1-28.8-168.8,47.9-234c51.8-44.1,72.9-47.9,235.9-47.9c352.9,0,809.4,80.5,1202.6,211c1039.6,347.1,1921.8,1133.5,2395.6,2140.5c235.9,500.6,381.7,1124,381.7,1636c0,163-3.8,178.4-51.8,232.1C8964.5,326.1,8885.8,341.5,8797.6,297.3z"/></g></g>
</svg>